# xmcd
#
# Track frame offsets:
#	150
#	12974
#	19487
#	28267
#	38560
#	52700
#	62068
#	74843
#	83300
#	88793
#	97765
#	104337
#	113462
#	134834
#	138238
#	150694
#	162999
#	175972
#	193449
#	204833
#	211675
#	220240
#	229708
#	239254
#	244560
#	264047
#	286375
#	298985
#	312253
#	325575
#	328895
#	333433
#	337540
#
# Disc length: 4567 seconds
#
# Revision: 0
# Processed by: cddbd v1.4PL0 Copyright (c) Steve Scherf et al.
# Submitted via: EasyCDDAExtractor 4.6.9.1
#
DISCID=d011d521
DTITLE=Jim Reeves - Welcome To My World - Disc 15
DYEAR=1994
DGENRE=Country
TTITLE0=My Mary (1994)
TTITLE1=When Did You Leave Heaven (1994)
TTITLE2=Christmas Alone (1994)
TTITLE3=Once Upon A Time (1994)
TTITLE4=God Be With You (1994)
TTITLE5=Jesus Is Calling (1994)
TTITLE6=Wagon Load Of Love (1) (1994)
TTITLE7=The Letter Edged In Black (1994)
TTITLE8=Chicken Hearted (1994)
TTITLE9=I've Never Been So Blue (1994)
TTITLE10=My Heart's Like A Welcome Mat (1994)
TTITLE11=Teardrops Of Regret (1994)
TTITLE12=I Could Cry (1994)
TTITLE13=You're The Sweetest Thing (1994)
TTITLE14=Wagon Load Of Love (2) (1994)
TTITLE15=Whispering Willow (1994)
TTITLE16=I'll Tell The World I Love You (1994)
TTITLE17=The Girl I Left Behind (1994)
TTITLE18=Chittlin' Blues (1994)
TTITLE19=Dissatisfied (1994)
TTITLE20=A Penny For Your Thoughts (1994)
TTITLE21=Near The Cross (1994)
TTITLE22=Humpty Dumpty Heart (1994)
TTITLE23=Naughty Angeline (1994)
TTITLE24=Got You On My Mind (1994)
TTITLE25=You Belong To Me (1994)
TTITLE26=Take Me In Your Arms And Hold Me (1994)
TTITLE27=Tijuana (1994)
TTITLE28=Yonder Comes A Sucker (1994)
TTITLE29=Mary Carter Paint (1) (1959)
TTITLE30=Mary Carter Paint (2) (1959)
TTITLE31=Mary Carter Paint (Instrumental) (3) (1959)
TTITLE32=Mary Carter Paint (4) (1959)
EXTD=
EXTT0=
EXTT1=
EXTT2=
EXTT3=
EXTT4=
EXTT5=
EXTT6=
EXTT7=
EXTT8=
EXTT9=
EXTT10=
EXTT11=
EXTT12=
EXTT13=
EXTT14=
EXTT15=
EXTT16=
EXTT17=
EXTT18=
EXTT19=
EXTT20=
EXTT21=
EXTT22=
EXTT23=
EXTT24=
EXTT25=
EXTT26=
EXTT27=
EXTT28=
EXTT29=
EXTT30=
EXTT31=
EXTT32=
PLAYORDER=
